# Blender v2.91.0 OBJ File: 'ImpossibleCube.blend'
# www.blender.org
o Cube
v 1.000000 1.000000 -1.000000
v 1.000000 -1.000000 -1.000000
v 1.000000 1.000000 1.000000
v 1.000000 -1.000000 1.000000
v -1.000000 1.000000 -1.000000
v -1.000000 -1.000000 -1.000000
v -1.000000 1.000000 1.000000
v -1.000000 -1.000000 1.000000
v 9.000000 1.000000 -1.000000
v 9.000000 -1.000000 -1.000000
v 9.000000 1.000000 1.000000
v 9.000000 -1.000000 1.000000
v -1.000000 -9.000000 -1.000000
v -1.000000 -9.000000 1.000000
v 1.000000 -9.000000 -1.000000
v 1.000000 -9.000000 1.000000
v 1.000000 -3.000000 -1.000000
v 1.000000 -7.000000 -1.000000
v -1.000000 -7.000000 -1.000000
v -1.000000 -3.000000 -1.000000
v -1.000000 -3.000000 1.000000
v -1.000000 -7.000000 1.000000
v 1.000000 -7.000000 1.000000
v 1.000000 -3.000000 1.000000
v 1.000000 -9.000000 -7.000000
v -1.000000 -9.000000 -7.000000
v 1.000000 -7.000000 -7.000000
v -1.000000 -7.000000 -7.000000
v 9.000000 1.000000 5.000000
v 7.000000 1.000000 1.000000
v 7.000000 1.000000 -1.000000
v 7.000000 -1.000000 -1.000000
v 7.000000 1.000000 3.000000
v 7.000000 -1.000000 -7.000000
v 7.000000 1.000000 -7.000000
v 7.000000 -1.000000 -9.000000
v 7.000000 1.000000 -9.000000
v 1.000000 -1.000000 -9.000000
v -1.000000 -1.000000 -9.000000
v 1.000000 1.000000 -9.000000
v -1.000000 1.000000 -9.000000
v 3.000000 1.000000 1.000000
v 9.000000 -1.000000 -9.000000
v -1.000000 1.000000 -7.000000
v -1.000000 -1.000000 -7.000000
v 9.000000 1.000000 -9.000000
v 5.000000 1.000000 1.000000
v 1.000000 -1.000000 -7.000000
v 9.000000 1.000000 -7.000000
v 5.000000 -1.000000 1.000000
v 3.000000 -1.000000 1.000000
v 9.000000 -1.000000 -7.000000
v 1.000000 1.000000 -7.000000
v 3.000000 1.000000 -1.000000
v 5.000000 1.000000 -1.000000
v 5.000000 -1.000000 -1.000000
v 3.000000 -1.000000 -1.000000
v 5.016044 -1.000000 1.000000
v 1.000000 -9.000000 -9.000000
v -1.000000 -9.000000 -9.000000
v 1.000000 -7.000000 -9.000000
v -1.000000 -7.000000 -9.000000
v 7.000000 -7.000000 -7.000000
v 7.000000 -9.000000 -7.000000
v 7.000000 -7.000000 -9.000000
v 7.000000 -9.000000 -9.000000
v 9.000000 -7.000000 -7.000000
v 9.000000 -9.000000 -7.000000
v 9.000000 -7.000000 -9.000000
v 9.000000 -9.000000 -9.000000
v 7.000000 -9.000000 1.000000
v 7.000000 -9.000000 -1.000000
v 7.000000 -7.000000 -1.000000
v 7.000000 -7.000000 1.000000
v 7.000000 -7.000000 -1.000000
v 7.000000 -9.000000 -1.000000
v 9.000000 -7.000000 -1.000000
v 9.000000 -9.000000 -1.000000
v 9.000000 -9.000000 1.000000
v 9.000000 -9.000000 -1.000000
v 7.000000 -9.000000 1.000000
v 7.000000 -9.000000 -1.000000
v 9.000000 -1.000000 3.000000
v 1.000000 -1.000000 -7.000000
v -1.000000 -1.000000 -7.000000
v 1.000000 -1.000000 -9.000000
v -1.000000 -1.000000 -9.000000
v 7.000000 -3.000000 1.000000
v 7.000000 -5.000000 1.000000
v 7.000000 -7.000000 1.000000
v 9.000000 -7.000000 1.000000
v 9.000000 -5.000000 1.000000
v 9.000000 -3.000000 1.000000
v 7.000000 -3.000000 -1.000000
v 7.000000 -5.000000 -1.000000
v 7.000000 -7.000000 -1.000000
v 9.000000 -7.000000 -1.000000
v 9.000000 -5.000000 -1.000000
v 9.000000 -3.000000 -1.000000
vt 0.625000 0.500000
vt 0.875000 0.500000
vt 0.875000 0.750000
vt 0.625000 0.750000
vt 0.375000 0.750000
vt 0.625000 1.000000
vt 0.375000 1.000000
vt 0.375000 0.000000
vt 0.625000 0.000000
vt 0.625000 0.250000
vt 0.375000 0.250000
vt 0.375000 0.500000
vt 0.125000 0.500000
vt 0.125000 0.500000
vt 0.375000 0.500000
vt 0.000000 0.000000
vt 0.000000 0.000000
vt 0.000000 0.000000
vt 0.000000 0.000000
vt 0.625000 0.250000
vt 0.375000 0.250000
vt 0.625000 0.500000
vt 0.625000 0.500000
vt 0.375000 0.500000
vt 0.375000 0.500000
vt 0.375000 0.750000
vt 0.000000 0.000000
vt 0.000000 0.000000
vt 0.375000 0.750000
vt 0.125000 0.750000
vt 0.375000 0.750000
vt 0.375000 1.000000
vt 0.375000 1.000000
vt 0.375000 0.000000
vt 0.375000 0.250000
vt 0.375000 0.250000
vt 0.375000 0.000000
vt 0.375000 0.500000
vt 0.375000 0.750000
vt 0.375000 1.000000
vt 0.375000 0.750000
vt 0.375000 0.500000
vt 0.375000 0.500000
vt 0.375000 0.500000
vt 0.375000 0.250000
vt 0.125000 0.500000
vt 0.375000 0.500000
vt 0.375000 0.500000
vt 0.375000 0.250000
vt 0.375000 0.250000
vt 0.000000 0.000000
vt 0.375000 0.500000
vt 0.375000 0.500000
vt 0.375000 0.500000
vt 0.375000 0.500000
vt 0.625000 0.500000
vt 0.375000 0.250000
vt 0.625000 0.250000
vt 0.625000 0.500000
vt 0.375000 0.500000
vt 0.375000 0.250000
vt 0.375000 0.500000
vt 0.375000 0.500000
vt 0.375000 0.250000
vt 0.625000 0.500000
vt 0.375000 0.500000
vt 0.625000 0.500000
vt 0.375000 0.500000
vt 0.625000 0.500000
vt 0.375000 0.500000
vt 0.375000 0.500000
vt 0.625000 0.500000
vt 0.375000 0.750000
vt 0.375000 0.750000
vt 0.208333 0.250000
vt 0.416667 0.500000
vt 0.375000 0.750000
vt 0.375000 0.500000
vt 0.375000 0.500000
vt 0.375000 0.000000
vt 0.375000 0.250000
vt 0.375000 0.250000
vt 0.375000 0.500000
vt 0.375000 0.500000
vt 0.375000 0.500000
vt 0.375000 0.500000
vt 0.375000 0.500000
vt 0.375000 0.500000
vt 0.375000 0.500000
vt 0.375000 0.500000
vt 0.000000 0.000000
vt 0.000000 0.000000
vt 0.000000 0.000000
vt 0.000000 0.000000
vt 0.000000 0.000000
vt 0.000000 0.000000
vt 0.375000 0.750000
vt 0.375000 0.500000
vt 0.375000 0.750000
vt 0.375000 0.500000
vt 0.375000 0.500000
vt 0.375000 0.750000
vt 0.375000 0.500000
vt 0.375000 0.500000
vt 0.375000 0.500000
vt 0.375000 0.750000
vt 0.375000 0.500000
vt 0.208333 0.166667
vt 0.416667 0.333333
vt 0.000000 0.000000
vt 0.000000 0.000000
vt 0.000000 0.000000
vt 0.375000 0.500000
vt 0.375000 0.500000
vt 0.375000 0.500000
vt 0.375000 0.500000
vt 0.000000 0.000000
vt 0.000000 0.000000
vt 0.000000 0.000000
vt 0.375000 0.750000
vt 0.375000 0.750000
vt 0.625000 0.500000
vt 0.625000 0.500000
vt 0.000000 0.000000
vn 0.0000 1.0000 0.0000
vn 0.0000 0.0000 1.0000
vn -1.0000 0.0000 0.0000
vn 0.0000 -1.0000 0.0000
vn 0.0000 0.0000 -1.0000
vn 1.0000 0.0000 0.0000
vn 0.7071 -0.7071 -0.0028
vn -0.7071 -0.7071 0.0000
vn -0.5774 -0.5774 0.5774
vn -0.5774 0.5774 -0.5774
s off
f 1/1/1 5/2/1 7/3/1 3/4/1
f 4/5/2 3/4/2 7/6/2 8/7/2
f 8/8/3 7/9/3 5/10/3 6/11/3
f 15/12/4 13/13/4 26/14/4 25/15/4
f 29/16/1 11/17/1 30/18/1 33/19/1
f 6/11/3 5/10/3 44/20/3 45/21/3
f 31/22/3 35/23/3 34/24/3 32/25/3
f 12/26/2 88/27/2 93/28/2
f 13/13/4 15/12/4 16/29/4 14/30/4
f 23/31/2 22/32/2 14/33/2 16/29/2
f 22/34/3 19/35/3 13/36/3 14/37/3
f 16/29/4 15/12/4 72/38/4 71/39/4
f 4/5/2 8/7/2 21/40/2 22/32/2 23/31/2 24/41/2
f 6/11/5 2/42/5 17/43/5 18/44/5 19/35/5 20/45/5
f 2/42/6 4/5/6 24/41/6 23/31/6 18/44/6 17/43/6
f 25/15/4 26/14/4 60/46/4 59/47/4
f 19/35/1 18/44/1 27/48/1 28/49/1
f 13/36/3 19/35/3 28/49/3 26/50/3
f 18/44/6 15/12/6 25/15/6 27/48/6
f 12/26/6 11/17/6 29/16/6 83/51/6
f 59/47/5 61/52/5 65/53/5 66/54/5
f 10/55/6 9/56/6 11/17/6 12/26/6
f 39/57/5 41/58/5 40/59/5 38/60/5
f 45/21/3 44/20/3 41/58/3 39/57/3
f 85/61/1 84/62/1 86/63/1 87/64/1
f 44/20/1 53/65/1 40/59/1 41/58/1
f 53/65/2 48/66/2 34/24/2 35/23/2
f 38/60/5 40/59/5 37/67/5 36/68/5
f 49/69/6 52/70/6 43/71/6 46/72/6
f 40/59/1 53/65/1 35/23/1 37/67/1
f 36/68/5 37/67/5 46/72/5 43/71/5
f 37/67/1 35/23/1 49/69/1 46/72/1
f 48/66/4 38/60/4 36/68/4 34/24/4
f 1/1/6 2/42/6 48/66/6 53/65/6
f 2/42/4 6/11/4 45/21/4 48/66/4
f 9/56/6 10/55/6 52/70/6 49/69/6
f 9/56/1 49/69/1 35/23/1 31/22/1
f 5/10/1 1/1/1 53/65/1 44/20/1
f 32/25/2 10/55/2 31/22/2
f 50/73/2 58/74/2 30/18/2 47/75/2 42/76/2 3/4/2 4/5/2 51/77/2
f 4/5/4 2/42/4 57/78/4 56/79/4 50/73/4 51/77/4
f 8/8/3 6/11/3 20/45/3 19/35/3 22/34/3 21/80/3
f 26/50/3 28/49/3 62/81/3 60/82/3
f 27/48/6 61/52/6 86/63/6 84/62/6
f 62/81/5 61/52/5 59/47/5 60/82/5
f 64/83/4 66/54/4 70/84/4 68/85/4
f 61/52/1 27/48/1 63/86/1 65/53/1
f 27/48/2 25/15/2 64/83/2 63/86/2
f 25/15/4 59/47/4 66/54/4 64/83/4
f 67/87/6 68/85/6 70/84/6 69/88/6
f 64/83/4 68/85/4 78/89/4 76/90/4
f 66/54/5 65/53/5 69/88/5 70/84/5
f 43/71/6 52/70/6 67/87/6 69/88/6
f 36/68/5 43/71/5 69/88/5 65/53/5
f 36/68/3 65/53/3 63/86/3 34/24/3
f 34/24/2 63/86/2 67/87/2 52/70/2
f 30/18/7 58/74/7 50/73/7 56/79/7 31/22/7
f 83/51/8 33/19/8 30/18/8 31/91/8 10/92/8 12/26/8
f 90/93/3 96/94/3 82/95/3 81/96/3
f 23/31/2 16/29/2 71/39/2 74/97/2
f 18/44/1 23/31/1 74/97/1 73/98/1
f 15/12/5 18/44/5 73/98/5 72/38/5
f 81/99/4 82/100/4 80/101/4 79/102/4
f 63/86/3 64/83/3 76/90/3 75/103/3
f 67/87/1 63/86/1 75/103/1 77/104/1
f 68/85/6 67/87/6 77/104/6 78/89/6
f 97/105/6 91/106/6 79/102/6 80/101/6
f 96/107/5 97/105/5 80/101/5 82/100/5
f 83/51/9 29/16/9 33/19/9
f 28/49/2 27/48/2 84/62/2 85/61/2
f 62/81/3 28/49/3 85/61/3 87/64/3
f 61/52/5 62/81/5 87/64/5 86/63/5
f 47/75/1 30/18/1 31/91/1 55/108/1 54/109/1 1/1/1 3/4/1 42/76/1
f 91/110/2 92/111/2 93/28/2 88/27/2 89/112/2 90/93/2
f 94/113/5 99/114/5 98/115/5 97/105/5 96/107/5 95/116/5
f 79/117/2 91/110/2 90/93/2 81/96/2
f 88/27/3 94/118/3 95/119/3 96/94/3 90/93/3 89/112/3
f 99/114/6 12/26/6 93/120/6
f 34/24/4 52/70/4 10/55/4 32/25/4
f 94/118/1 88/27/1 99/114/1
f 99/114/10 88/27/10 12/26/10
f 99/114/6 93/120/6 92/121/6 91/106/6 97/105/6 98/115/6
f 55/122/5 31/22/5 56/79/5 57/78/5 2/42/5 1/1/5 54/123/5
f 9/124/1 31/91/1 30/18/1 11/17/1
